<svg id="Layer_1" data-name="Layer 1" xmlns="http://www.w3.org/2000/svg" width="227.03" height="241.57" viewBox="0 0 227.03 241.57"><defs><style>.cls-1,.cls-2{fill:#231f20;}.cls-2{font-size:60px;font-family:MarckScript-Regular, Marck Script;}.cls-3{letter-spacing:-0.16em;}</style></defs><title>pasteria_logo</title><path class="cls-1" d="M38.27,157.87c4.91,8.06,14.47,10.49,23.33,8.46C72,164,78.82,155.7,82.08,145.89c4.18-12.59,3.06-26.84,1.32-39.76C81.25,90.25,76,75.8,71,60.7c-4-12.14-6.72-28.87,4.69-38.14,11.71-9.53,28,.34,32.53,12.61C119,64.26,90.68,90.8,86.75,118.48c-3.81,26.78,17.53,52,44.87,51.81,3.22,0,3.22-5,0-5A40.9,40.9,0,0,1,99,148.65c-8.59-11.47-9.23-25.22-5.2-38.61,7.52-25,30-50.21,18.69-77.67C104.33,12.61,75.68,6,65.56,27.79c-5,10.73-3.22,22.54.31,33.41C70.67,76,76.1,90.06,78.31,105.57c2.08,14.55,3.91,32.66-4.17,45.78-6.21,10.09-24,16.32-31.55,4-1.67-2.75-6-.24-4.32,2.52Z"/><path class="cls-1" d="M137.14,166.38c7.83-26.83.14-54.09-4.46-80.73-4.4-25.48-5.24-55.4,14.91-74.77l-4.18-2.44L135.15,61c-.49,3.12,3.83,4.47,4.82,1.33l7.09-22.51,3.54-11.26c.7-2.2,2-10.59,4.48-11.29,3.94-1.13.48,8.62.18,9.79l-3,11.6-5.95,23.19c-.69,2.68,3.18,4.47,4.57,1.92l22.34-41-4.57-1.93c-7.35,38.62-15.24,77.18-22,115.9-2.37,13.53-2.6,32,12.26,38.63s27.82-6.92,36.06-17.47c2-2.51-1.55-6.07-3.53-3.54-7.9,10.11-24,26.77-36.16,12-10.41-12.69-2.87-33.29-.16-47.53l18.4-96.66c.5-2.64-3.13-4.56-4.57-1.93l-22.34,41,4.57,1.93,8.68-33.82c1.22-4.73,5.59-16.42-2.68-17.76-7.64-1.25-9.81,10.7-11.37,15.63L135.15,61,140,62.3l8.26-52.53c.37-2.36-2.24-4.29-4.17-2.43-18.65,17.93-21,45.11-17.77,69.41,3.84,29.2,14.6,58.92,6,88.3-.91,3.09,3.92,4.42,4.82,1.33Z"/><text class="cls-2" transform="translate(9.16 205.15)"><tspan class="cls-3">P</tspan><tspan x="30" y="0">astaeria</tspan></text></svg>
